<svg width="24" height="24" viewBox="0 0 24 24" fill="none" xmlns="http://www.w3.org/2000/svg">
<path d="M2.32698 6.45395L2.77248 6.68094L2.77248 6.68094L2.32698 6.45395ZM2.7682 20.848L2.41464 20.4945L2.41464 20.4945L2.7682 20.848ZM18.3619 17.6889L18.5889 18.1344L18.5889 18.1344L18.3619 17.6889ZM19.6729 16.3778L20.1184 16.6048L20.1184 16.6048L19.6729 16.3778ZM19.6729 6.45395L20.1184 6.22695L20.1184 6.22695L19.6729 6.45395ZM18.3619 5.1429L18.5889 4.6974L18.5889 4.6974L18.3619 5.1429ZM3.63803 5.1429L3.86502 5.5884L3.86502 5.5884L3.63803 5.1429ZM5.5999 18.0163L5.24635 17.6628L5.5999 18.0163ZM2.5 9.61592C2.5 8.76759 2.50039 8.16141 2.53921 7.68624C2.57756 7.2169 2.65089 6.91958 2.77248 6.68094L1.88148 6.22695C1.67609 6.63005 1.58593 7.07363 1.54253 7.60481C1.49961 8.13015 1.5 8.78409 1.5 9.61592H2.5ZM2.5 12.0163V9.61592H1.5V12.0163H2.5ZM1.5 12.0163V18.0159H2.5V12.0163H1.5ZM1.5 18.0159V18.0163H2.5V18.0159H1.5ZM1.5 18.0163V20.5298H2.5V18.0163H1.5ZM1.5 20.5298C1.5 21.3762 2.52329 21.8001 3.12175 21.2016L2.41464 20.4945C2.41754 20.4916 2.42812 20.4842 2.44323 20.4816C2.4556 20.4795 2.4642 20.4816 2.46913 20.4836C2.47406 20.4857 2.48164 20.4903 2.48888 20.5005C2.49771 20.5131 2.5 20.5257 2.5 20.5298H1.5ZM3.12175 21.2016L5.95345 18.3699L5.24635 17.6628L2.41464 20.4945L3.12175 21.2016ZM15.1999 17.5159H5.60026V18.5159H15.1999V17.5159ZM18.1349 17.2434C17.8963 17.365 17.5989 17.4383 17.1296 17.4766C16.6544 17.5155 16.0482 17.5159 15.1999 17.5159V18.5159C16.0317 18.5159 16.6857 18.5162 17.211 18.4733C17.7422 18.4299 18.1858 18.3398 18.5889 18.1344L18.1349 17.2434ZM19.2274 16.1508C18.9877 16.6212 18.6053 17.0037 18.1349 17.2434L18.5889 18.1344C19.2474 17.7988 19.7829 17.2634 20.1184 16.6048L19.2274 16.1508ZM19.4999 13.2158C19.4999 14.0642 19.4995 14.6704 19.4607 15.1455C19.4224 15.6149 19.349 15.9122 19.2274 16.1508L20.1184 16.6048C20.3238 16.2017 20.414 15.7581 20.4574 15.227C20.5003 14.7016 20.4999 14.0477 20.4999 13.2158H19.4999ZM19.4999 9.61592V13.2158H20.4999V9.61592H19.4999ZM19.2274 6.68094C19.349 6.91958 19.4224 7.2169 19.4607 7.68624C19.4995 8.16141 19.4999 8.76759 19.4999 9.61592H20.4999C20.4999 8.78409 20.5003 8.13015 20.4574 7.60481C20.414 7.07363 20.3238 6.63005 20.1184 6.22695L19.2274 6.68094ZM18.1349 5.5884C18.6053 5.82809 18.9877 6.21054 19.2274 6.68094L20.1184 6.22695C19.7829 5.56838 19.2474 5.03295 18.5889 4.6974L18.1349 5.5884ZM15.1999 5.31592C16.0482 5.31592 16.6544 5.31631 17.1296 5.35513C17.5989 5.39348 17.8963 5.46681 18.1349 5.5884L18.5889 4.6974C18.1858 4.492 17.7422 4.40185 17.211 4.35845C16.6857 4.31553 16.0317 4.31592 15.1999 4.31592V5.31592ZM6.8 5.31592H15.1999V4.31592H6.8V5.31592ZM3.86502 5.5884C4.10366 5.46681 4.40099 5.39348 4.87032 5.35513C5.34549 5.31631 5.95167 5.31592 6.8 5.31592V4.31592C5.96817 4.31592 5.31423 4.31553 4.78889 4.35845C4.25771 4.40185 3.81413 4.492 3.41103 4.6974L3.86502 5.5884ZM2.77248 6.68094C3.01217 6.21054 3.39462 5.82809 3.86502 5.5884L3.41103 4.6974C2.75247 5.03295 2.21703 5.56838 1.88148 6.22695L2.77248 6.68094ZM6.09998 18.0161C6.09998 18.2926 5.87575 18.5159 5.60026 18.5159V17.5159C5.32447 17.5159 5.09998 17.7393 5.09998 18.0161H6.09998ZM5.95345 18.3699C6.04732 18.276 6.09998 18.1488 6.09998 18.0161H5.09998C5.09998 17.8837 5.15259 17.7565 5.24635 17.6628L5.95345 18.3699Z" fill="#222222"/>
<path d="M7 9L15 9" stroke="#222222" stroke-linecap="round" stroke-linejoin="round"/>
<path d="M7 13L12 13" stroke="#222222" stroke-linecap="round" stroke-linejoin="round"/>
</svg>
