<svg width="33" height="32" viewBox="0 0 33 32" fill="none" xmlns="http://www.w3.org/2000/svg">
<path d="M19.0517 9.00706L19.0348 9.02373L8.63943 19.2518C8.62822 19.2629 8.6171 19.2738 8.60606 19.2846C8.44094 19.4467 8.29477 19.5903 8.19151 19.7701C8.08826 19.95 8.03803 20.1485 7.98128 20.3729C7.97749 20.3879 7.97366 20.403 7.96979 20.4182L6.95745 24.4025C6.9552 24.4113 6.95293 24.4202 6.95066 24.4292C6.91081 24.5857 6.86826 24.7529 6.85397 24.8934C6.83824 25.048 6.84076 25.3091 7.04938 25.5193C7.258 25.7296 7.51905 25.7341 7.67384 25.7195C7.81443 25.7063 7.98191 25.665 8.13875 25.6264C8.1477 25.6242 8.15663 25.622 8.16551 25.6198L12.2434 24.6167C12.2584 24.613 12.2733 24.6094 12.288 24.6058C12.5091 24.5516 12.7049 24.5037 12.883 24.4042C13.0612 24.3047 13.2047 24.1633 13.3668 24.0034C13.3776 23.9928 13.3886 23.982 13.3996 23.9711L23.7553 13.782L23.7789 13.7587C24.0997 13.4431 24.3759 13.1715 24.5672 12.9244C24.7722 12.6599 24.9277 12.3648 24.9277 12C24.9277 11.6352 24.7722 11.3401 24.5672 11.0756C24.3759 10.8285 24.0997 10.5569 23.779 10.2413L23.7553 10.218L22.5415 9.02373L22.5183 9.00087C22.2071 8.69465 21.9387 8.43056 21.6951 8.24749C21.4339 8.05118 21.1442 7.90289 20.7881 7.90289C20.4321 7.90289 20.1424 8.05118 19.8811 8.24749C19.6376 8.43056 19.3692 8.69466 19.058 9.00087L19.0517 9.00706Z" stroke="#222222"/>
<path d="M17.3999 10.0002L21.4653 7.3335L25.5307 11.3335L22.8204 15.3335L17.3999 10.0002Z" fill="#222222"/>
</svg>
