<svg width="25" height="24" viewBox="0 0 25 24" fill="none" xmlns="http://www.w3.org/2000/svg">
<path d="M10.165 14.5L10.165 11.5" stroke="#222222" stroke-linecap="round"/>
<path d="M15.2466 14.5L15.2466 11.5" stroke="#222222" stroke-linecap="round"/>
<path d="M3.55859 6.5H21.8529V6.5C20.3938 6.5 19.6643 6.5 19.1474 6.86245C18.9571 6.99588 18.7915 7.16147 18.6581 7.35178C18.2957 7.86868 18.2957 8.5982 18.2957 10.0572V15.5C18.2957 17.3856 18.2957 18.3284 17.7099 18.9142C17.1241 19.5 16.1813 19.5 14.2957 19.5H11.1158C9.2302 19.5 8.28739 19.5 7.7016 18.9142C7.11581 18.3284 7.11581 17.3856 7.11581 15.5V10.0572C7.11581 8.5982 7.11581 7.86868 6.75337 7.35178C6.61993 7.16147 6.45434 6.99588 6.26404 6.86245C5.74713 6.5 5.01762 6.5 3.55859 6.5V6.5Z" stroke="#222222" stroke-linecap="round"/>
<path d="M10.1648 3.50024C10.1648 3.50024 10.673 2.5 12.7057 2.5C14.7384 2.5 15.2466 3.5 15.2466 3.5" stroke="#222222" stroke-linecap="round"/>
</svg>
