<svg width="24" height="24" viewBox="0 0 24 24" fill="none" xmlns="http://www.w3.org/2000/svg">
<path d="M21 5L19.0264 6.4379C18.6843 6.68714 18.272 6.82143 17.8487 6.82143H13.4145C12.6994 6.82143 12.0443 7.22103 11.7171 7.85681V7.85681C11.3002 8.66667 11.5136 9.65821 12.2267 10.2249L15.2688 12.6429C16.8899 13.9313 17.732 15.9645 17.4967 18.0218L17.3489 19.3141C17.2832 19.8887 17.1553 20.4545 16.9676 21.0015L16.625 22" stroke="white" stroke-width="2"/>
<path d="M1 10.1667L4.90751 9.48285C6.25959 9.24624 7.44273 10.4108 7.22755 11.7664L6.9898 13.2642C6.73026 14.8994 7.54223 16.518 9.00812 17.2876V17.2876C10.18 17.9028 10.7855 19.2343 10.4789 20.5219L9.88889 23" stroke="white" stroke-width="2"/>
<circle cx="12" cy="12" r="11" stroke="white" stroke-width="2"/>
</svg>
